<svg width="141" height="26" viewBox="0 0 141 26" fill="none" xmlns="http://www.w3.org/2000/svg"><path d="M126.251 24.8416C125.916 24.8416 125.622 24.8163 125.37 24.7658C125.119 24.7153 124.876 24.6564 124.641 24.5891L125.169 22.3166C125.287 22.3502 125.421 22.3839 125.572 22.4176C125.739 22.4681 125.899 22.4933 126.05 22.4933C126.704 22.4933 127.224 22.2913 127.61 21.8873C128.012 21.5001 128.314 20.9951 128.515 20.3723L128.742 19.5896L123.886 7.34331H126.83L128.968 13.4286C129.153 13.9672 129.329 14.5396 129.497 15.1456C129.681 15.7347 129.866 16.3239 130.05 16.9131H130.151C130.302 16.3407 130.453 15.76 130.604 15.1708C130.772 14.5648 130.931 13.9841 131.082 13.4286L132.944 7.34331H135.737L131.258 20.2966C130.738 21.6937 130.109 22.7963 129.371 23.6043C128.633 24.4291 127.593 24.8416 126.251 24.8416Z" fill="#032765"/>
<path d="M118.283 20.044C117.445 20.044 116.606 19.8841 115.767 19.5643C114.929 19.2276 114.207 18.8152 113.604 18.327L114.962 16.4585C115.516 16.8794 116.069 17.216 116.623 17.4685C117.176 17.721 117.763 17.8473 118.384 17.8473C119.055 17.8473 119.55 17.7042 119.869 17.418C120.187 17.1319 120.347 16.7784 120.347 16.3575C120.347 16.004 120.212 15.7179 119.944 15.499C119.692 15.2634 119.365 15.0614 118.963 14.893C118.56 14.7079 118.141 14.5311 117.705 14.3628C117.168 14.1608 116.631 13.9167 116.094 13.6305C115.575 13.3275 115.147 12.9488 114.811 12.4943C114.476 12.023 114.308 11.4422 114.308 10.752C114.308 9.65788 114.711 8.76571 115.516 8.07555C116.321 7.38538 117.411 7.0403 118.787 7.0403C119.659 7.0403 120.439 7.1918 121.127 7.4948C121.814 7.7978 122.41 8.14288 122.913 8.53005L121.58 10.2975C121.143 9.97772 120.699 9.72522 120.246 9.54005C119.81 9.33805 119.349 9.23705 118.862 9.23705C118.242 9.23705 117.78 9.37172 117.478 9.64105C117.176 9.89355 117.025 10.2134 117.025 10.6005C117.025 11.0887 117.277 11.459 117.78 11.7115C118.283 11.964 118.871 12.2081 119.542 12.4438C120.112 12.6458 120.665 12.8983 121.202 13.2013C121.739 13.4875 122.183 13.8662 122.536 14.3375C122.905 14.8089 123.089 15.4317 123.089 16.206C123.089 17.2665 122.678 18.1755 121.856 18.933C121.034 19.6737 119.843 20.044 118.283 20.044Z" fill="#032765"/>
<path d="M105.738 20.044C104.664 20.044 103.784 19.7074 103.096 19.034C102.425 18.3607 102.089 17.4854 102.089 16.408C102.089 15.0782 102.668 14.0514 103.825 13.3275C104.983 12.5869 106.828 12.0819 109.361 11.8125C109.344 11.156 109.168 10.5921 108.832 10.1208C108.514 9.63263 107.935 9.38855 107.096 9.38855C106.493 9.38855 105.897 9.50638 105.31 9.74205C104.74 9.97771 104.178 10.2639 103.624 10.6005L102.567 8.6563C103.255 8.21863 104.027 7.83988 104.882 7.52005C105.754 7.20021 106.677 7.0403 107.65 7.0403C109.193 7.0403 110.342 7.50322 111.097 8.42905C111.869 9.33805 112.254 10.6595 112.254 12.3933V19.741H109.864L109.663 18.3775H109.562C109.009 18.8489 108.413 19.2445 107.776 19.5643C107.155 19.8841 106.476 20.044 105.738 20.044ZM106.669 17.7715C107.172 17.7715 107.625 17.6537 108.027 17.418C108.447 17.1655 108.891 16.8289 109.361 16.408V13.6305C107.683 13.8494 106.518 14.1776 105.864 14.6153C105.209 15.0361 104.882 15.558 104.882 16.1808C104.882 16.7363 105.05 17.1403 105.385 17.3928C105.721 17.6453 106.149 17.7715 106.669 17.7715Z" fill="#032765"/>
<path d="M90.463 19.7411V3.22755H100.376V5.70205H93.3816V9.91881H99.2944V12.3933H93.3816V17.2666H100.628V19.7411H90.463Z" fill="#032765"/>
<path d="M85.4729 20.0441C84.0471 20.0441 83.0323 19.6316 82.4284 18.8068C81.8413 17.9651 81.5478 16.8794 81.5478 15.5496V9.64106H79.7865V7.46956L81.6987 7.34331L82.051 3.95981H84.4664V7.34331H87.6115V9.64106H84.4664V15.5496C84.4664 16.9972 85.0451 17.7211 86.2025 17.7211C86.4206 17.7211 86.647 17.6958 86.8819 17.6453C87.1167 17.578 87.318 17.5106 87.4857 17.4433L87.9889 19.5896C87.6535 19.7074 87.2677 19.8084 86.8315 19.8926C86.4122 19.9936 85.9593 20.0441 85.4729 20.0441Z" fill="#032765"/>
<path d="M74.1488 20.044C73.0081 20.044 71.9765 19.7915 71.054 19.2865C70.1314 18.7647 69.4018 18.024 68.865 17.0645C68.3282 16.0882 68.0598 14.9183 68.0598 13.5548C68.0598 12.2081 68.3282 11.0466 68.865 10.0703C69.4185 9.09396 70.1314 8.34488 71.0037 7.82305C71.8759 7.30121 72.7901 7.0403 73.7462 7.0403C74.87 7.0403 75.8094 7.2928 76.5642 7.7978C77.319 8.28596 77.8893 8.97613 78.2751 9.8683C78.6609 10.7436 78.8538 11.762 78.8538 12.9235C78.8538 13.5295 78.8119 14.0009 78.728 14.3375H70.8779C71.012 15.4317 71.4062 16.2818 72.0604 16.8878C72.7146 17.4938 73.5365 17.7968 74.5262 17.7968C75.0629 17.7968 75.5578 17.721 76.0107 17.5695C76.4803 17.4012 76.9416 17.174 77.3945 16.8878L78.3758 18.7058C77.7887 19.093 77.1345 19.4128 76.4132 19.6653C75.6919 19.9178 74.9371 20.044 74.1488 20.044ZM70.8527 12.368H76.3377C76.3377 11.4085 76.1281 10.6595 75.7087 10.1208C75.2894 9.5653 74.6604 9.28755 73.8217 9.28755C73.1004 9.28755 72.4546 9.55688 71.8843 10.0955C71.3307 10.6174 70.9869 11.3749 70.8527 12.368Z" fill="#032765"/>
<path d="M62.0254 20.044C60.8847 20.044 59.8532 19.7915 58.9306 19.2865C58.008 18.7647 57.2784 18.024 56.7416 17.0645C56.2048 16.0882 55.9365 14.9183 55.9365 13.5548C55.9365 12.2081 56.2048 11.0466 56.7416 10.0703C57.2951 9.09396 58.008 8.34488 58.8803 7.82305C59.7525 7.30121 60.6667 7.0403 61.6228 7.0403C62.7466 7.0403 63.686 7.2928 64.4408 7.7978C65.1956 8.28596 65.7659 8.97613 66.1517 9.8683C66.5375 10.7436 66.7304 11.762 66.7304 12.9235C66.7304 13.5295 66.6885 14.0009 66.6046 14.3375H58.7545C58.8887 15.4317 59.2828 16.2818 59.937 16.8878C60.5912 17.4938 61.4131 17.7968 62.4028 17.7968C62.9395 17.7968 63.4344 17.721 63.8873 17.5695C64.3569 17.4012 64.8182 17.174 65.2711 16.8878L66.2524 18.7058C65.6653 19.093 65.0111 19.4128 64.2898 19.6653C63.5686 19.9178 62.8137 20.044 62.0254 20.044ZM58.7293 12.368H64.2144C64.2144 11.4085 64.0047 10.6595 63.5853 10.1208C63.166 9.5653 62.537 9.28755 61.6983 9.28755C60.977 9.28755 60.3312 9.55688 59.7609 10.0955C59.2074 10.6174 58.8635 11.3749 58.7293 12.368Z" fill="#032765"/>
<path d="M48.356 19.741V7.3433H50.7463L50.9475 9.54005H51.0482C51.4843 8.73205 52.0127 8.11763 52.6333 7.6968C53.254 7.25913 53.8914 7.0403 54.5455 7.0403C55.1326 7.0403 55.6023 7.12446 55.9545 7.2928L55.4513 9.8178C55.2333 9.75047 55.032 9.69996 54.8475 9.6663C54.663 9.63263 54.4365 9.6158 54.1681 9.6158C53.6817 9.6158 53.1701 9.80938 52.6333 10.1965C52.0966 10.5669 51.6353 11.2234 51.2495 12.166V19.741H48.356Z" fill="#032765"/>
<path d="M44.1499 20.0441C42.7242 20.0441 41.7093 19.6316 41.1055 18.8068C40.5184 17.9651 40.2248 16.8794 40.2248 15.5496V9.64106H38.4636V7.46956L40.3758 7.34331L40.7281 3.95981H43.1435V7.34331H46.2886V9.64106H43.1435V15.5496C43.1435 16.9972 43.7222 17.7211 44.8796 17.7211C45.0977 17.7211 45.3241 17.6958 45.5589 17.6453C45.7938 17.578 45.9951 17.5106 46.1628 17.4433L46.666 19.5896C46.3305 19.7074 45.9447 19.8084 45.5086 19.8926C45.0893 19.9936 44.6364 20.0441 44.1499 20.0441Z" fill="#032765"/>
<path d="M32.2812 20.0441C31.1741 20.0441 30.1006 19.8336 29.0606 19.4128C28.0374 18.992 27.1316 18.3944 26.3433 17.6201L28.0542 15.6253C28.6413 16.1808 29.3122 16.6353 30.0671 16.9888C30.8219 17.3255 31.5767 17.4938 32.3315 17.4938C33.2709 17.4938 33.9838 17.3002 34.4702 16.9131C34.9566 16.5259 35.1999 16.0125 35.1999 15.3728C35.1999 14.6826 34.9566 14.1861 34.4702 13.8831C34.0005 13.5801 33.3967 13.2686 32.6586 12.9488L30.3941 11.9641C29.8574 11.7284 29.329 11.4254 28.809 11.0551C28.3058 10.6847 27.8865 10.2134 27.551 9.64106C27.2323 9.06873 27.0729 8.37856 27.0729 7.57056C27.0729 6.69523 27.3078 5.91248 27.7774 5.22231C28.2639 4.51531 28.918 3.95981 29.74 3.55581C30.5787 3.13498 31.5348 2.92456 32.6083 2.92456C33.5644 2.92456 34.487 3.11814 35.376 3.50531C36.265 3.87564 37.0282 4.38064 37.6656 5.02031L36.1811 6.88881C35.6611 6.45114 35.1076 6.10606 34.5205 5.85356C33.9502 5.60106 33.3128 5.47481 32.6083 5.47481C31.8367 5.47481 31.2077 5.65156 30.7212 6.00506C30.2516 6.34173 30.0167 6.81306 30.0167 7.41906C30.0167 7.83989 30.1342 8.19339 30.369 8.47956C30.6206 8.74889 30.9477 8.98456 31.3503 9.18656C31.7528 9.37173 32.1806 9.55689 32.6335 9.74206L34.8728 10.6763C35.8456 11.0971 36.6424 11.6526 37.263 12.3428C37.8837 13.0161 38.194 13.9504 38.194 15.1456C38.194 16.0377 37.9592 16.8541 37.4895 17.5948C37.0198 18.3355 36.3405 18.9331 35.4515 19.3876C34.5792 19.8252 33.5225 20.0441 32.2812 20.0441Z" fill="#032765"/>
<path fill-rule="evenodd" clip-rule="evenodd" d="M0 11.0161C0 4.93176 5.01569 0 11.1999 0C17.3834 0 22.3978 4.93176 22.3978 11.0161C22.3978 14.0875 21.1169 16.8626 19.0553 18.8603L12.0609 25.7411C11.6857 25.9911 11.1875 25.7411 11.1999 25.2411V22.031C5.01569 22.031 0 17.099 0 11.0161ZM16.4084 7.24077L16.9703 6.68804V5.57983H5.42667V6.68804L5.99057 7.24077V16.6566H10.4951V13.3339H11.9019V16.6566H16.4084V7.24077ZM9.08774 9.45657H7.67941V7.79434H9.08774V9.45657ZM14.7175 9.45657H13.31V7.79434H14.7175V9.45657ZM10.4947 12.2253H11.9015V10.5644H10.4947V12.2253ZM11.9015 9.45657H10.4947V7.79434H11.9015V9.45657ZM13.31 14.9954H14.7175V13.3337H13.31V14.9954ZM14.7175 12.2253H13.31V10.5644H14.7175V12.2253ZM7.67941 14.9954H9.08774V13.3337H7.67941V14.9954ZM9.08774 12.2253H7.67941V10.5644H9.08774V12.2253Z" fill="#032765"/>
<path d="M139.028 7.5773C138.703 7.5773 138.405 7.50022 138.134 7.34605C137.864 7.18572 137.649 6.9668 137.489 6.6893C137.329 6.4118 137.249 6.09422 137.249 5.73655C137.249 5.37272 137.329 5.05205 137.489 4.77455C137.649 4.49705 137.864 4.28122 138.134 4.12705C138.405 3.96672 138.703 3.88655 139.028 3.88655C139.36 3.88655 139.658 3.96672 139.922 4.12705C140.193 4.28122 140.408 4.49705 140.568 4.77455C140.727 5.05205 140.807 5.37272 140.807 5.73655C140.807 6.09422 140.727 6.4118 140.568 6.6893C140.408 6.9668 140.193 7.18572 139.922 7.34605C139.658 7.50022 139.36 7.5773 139.028 7.5773ZM139.028 7.17955C139.416 7.17955 139.735 7.04697 139.987 6.7818C140.245 6.51663 140.374 6.16822 140.374 5.73655C140.374 5.29872 140.245 4.94722 139.987 4.68205C139.735 4.41072 139.416 4.27505 139.028 4.27505C138.641 4.27505 138.319 4.41072 138.061 4.68205C137.809 4.94722 137.683 5.29872 137.683 5.73655C137.683 6.16822 137.809 6.51663 138.061 6.7818C138.319 7.04697 138.641 7.17955 139.028 7.17955ZM138.319 6.6338V4.79305H139.084C139.286 4.79305 139.459 4.8393 139.6 4.9318C139.747 5.0243 139.821 5.17847 139.821 5.3943C139.821 5.49913 139.79 5.5978 139.729 5.6903C139.674 5.7828 139.591 5.85372 139.48 5.90305L139.886 6.6338H139.397L139.093 6.03255H138.78V6.6338H138.319ZM138.78 5.69955H138.992C139.219 5.69955 139.333 5.60705 139.333 5.42205C139.333 5.34188 139.305 5.27713 139.25 5.2278C139.2 5.1723 139.117 5.14455 139.001 5.14455H138.78V5.69955Z" fill="#032765"/>
</svg>